<svg version="1" xmlns="http://www.w3.org/2000/svg" width="480" height="760" viewBox="0 0 360.000000 570.000000"><path d="M147 13.7c-23.5 1.7-49.1 10.5-68.8 23.7-52.3 34.8-76.9 104.1-57 160.4 12.9 36.8 42.1 64.2 78.5 73.9 8.7 2.3 11.7 2.6 27.3 2.7 19.3 0 28.2-1.2 43.9-6.4 17.4-5.6 30.2-13.2 43-25.5 14.1-13.5 22.4-27.4 27.8-46.7 2-7.4 3-9.5 3.9-8.7 2.3 1.9 9.2 17.3 11.7 25.9 4.3 14.8 5.9 26.4 6.4 47.6 1 37.6-4.3 66-18.8 100.4-24.8 58.7-77 114.4-138.2 147.5-4.8 2.6-8.7 5-8.7 5.3-.1 2.9 9.6 42.2 10.4 42.2.6 0 7.3-3.1 14.8-6.9C228.4 496.1 309.8 400.7 335 301c7-27.6 9.5-50.3 8.7-78.3-.6-22.6-2.5-36.6-7.7-57.3-10.4-40.9-27.5-72.6-53.9-99.8C252.2 35 216 17.8 173 14c-11.1-.9-16.5-1-26-.3z" fill="#cc092f"/></svg>